<svg width="60" height="60" viewBox="0 0 60 60" fill="none" xmlns="http://www.w3.org/2000/svg">
<path fill-rule="evenodd" clip-rule="evenodd" d="M17.985 12.0788C18.9899 10.2525 20.0831 9.03158 21.7052 8.38595C24.6777 7.20399 35.3237 7.20399 38.2939 8.38618C39.9151 9.03147 41.0087 10.2521 42.0144 12.0781L43.1449 14.2459C43.1708 14.2889 43.1945 14.3267 43.2159 14.3592L43.3119 14.4904C43.827 15.0517 44.689 15.3908 45.258 15.3908C50.638 15.3908 55.0005 19.7522 55.0005 25.1308V39.6183C55.0005 46.4788 49.436 52.0433 42.5755 52.0433H17.4255C10.5632 52.0433 5.00049 46.4796 5.00049 39.6183V25.1308C5.00049 19.7522 9.36293 15.3908 14.743 15.3908C15.3099 15.3908 16.1732 15.0512 16.6891 14.4904C16.6994 14.4792 16.7128 14.4625 16.7291 14.4404L16.8577 14.2431L17.985 12.0788ZM38.7296 13.8872C38.1047 12.7526 37.54 12.1222 36.9071 11.8703L36.6088 11.7712C34.0359 11.044 25.0865 11.077 23.0914 11.8703C22.4588 12.1221 21.8947 12.7521 21.2705 13.8865L20.3084 15.7468L20.0716 16.1753C19.8739 16.5042 19.6761 16.7817 19.4504 17.0277C18.1842 18.404 16.3111 19.1408 14.743 19.1408L14.3328 19.1546C11.2149 19.3654 8.75049 21.9613 8.75049 25.1308V39.6183C8.75049 44.4087 12.6345 48.2933 17.4255 48.2933H42.5755C47.365 48.2933 51.2505 44.4077 51.2505 39.6183V25.1308C51.2505 21.8235 48.5672 19.1408 45.258 19.1408L44.8227 19.1226C43.3514 19.0015 41.6987 18.2787 40.5491 17.0261C40.3263 16.7833 40.1296 16.5077 39.9331 16.1817C39.9049 16.1349 39.8699 16.0733 39.8296 16.0005L39.5394 15.4561L38.7296 13.8872Z" fill="white"/>
<path d="M43.7613 21.25C45.142 21.25 46.2613 22.3693 46.2613 23.75C46.2613 25.0321 45.2962 26.0888 44.0528 26.2332L43.7613 26.25C42.3581 26.25 41.2388 25.1307 41.2388 23.75C41.2388 22.4679 42.2039 21.4112 43.4472 21.2668L43.7613 21.25Z" fill="white"/>
<path fill-rule="evenodd" clip-rule="evenodd" d="M20.1772 32.82C20.1772 27.3945 24.5742 22.9975 29.9997 22.9975C35.4253 22.9975 39.8222 27.3945 39.8222 32.82C39.8222 38.2455 35.4253 42.6425 29.9997 42.6425C24.5742 42.6425 20.1772 38.2455 20.1772 32.82ZM36.0722 32.82C36.0722 29.4655 33.3542 26.7475 29.9997 26.7475C26.6453 26.7475 23.9272 29.4655 23.9272 32.82C23.9272 36.1745 26.6453 38.8925 29.9997 38.8925C33.3542 38.8925 36.0722 36.1745 36.0722 32.82Z" fill="white"/>
</svg>
