<svg width="18" height="18" viewBox="0 0 18 18" fill="none" xmlns="http://www.w3.org/2000/svg">
<mask id="mask0_42_5286" style="mask-type:luminance" maskUnits="userSpaceOnUse" x="1" y="1" width="17" height="17">
<path fill-rule="evenodd" clip-rule="evenodd" d="M1.5 1.5H17.0224V17.0017H1.5V1.5Z" fill="white"/>
</mask>
<g mask="url(#mask0_42_5286)">
<path fill-rule="evenodd" clip-rule="evenodd" d="M5.73176 2.625C3.55376 2.625 2.62451 3.732 2.62451 6.32475V12.174C2.62451 14.562 3.94301 15.8768 6.33701 15.8768H12.1735C14.5615 15.8768 15.8763 14.562 15.8763 12.174V12.1718L15.8973 8.448C15.8973 5.89875 15.0228 4.905 12.7765 4.905H10.654C9.94226 4.90425 9.26276 4.5645 8.83526 3.996L8.15051 3.0855C7.93526 2.79675 7.59101 2.62575 7.23101 2.625H5.73176ZM12.1735 17.0018H6.33701C3.35351 17.0018 1.49951 15.1515 1.49951 12.174V6.32475C1.49951 3.123 2.92376 1.5 5.73176 1.5H7.23176C7.94501 1.50075 8.62451 1.84125 9.05051 2.4105L9.73376 3.3195C9.95051 3.6075 10.2948 3.77925 10.6548 3.78H12.7765C15.673 3.78 17.0223 5.26425 17.0223 8.451L17.0013 12.1762C17.0005 15.1522 15.151 17.0018 12.1735 17.0018V17.0018Z" fill="white"/>
</g>
<path fill-rule="evenodd" clip-rule="evenodd" d="M12.5371 11.7846H5.98584C5.67534 11.7846 5.42334 11.5326 5.42334 11.2221C5.42334 10.9116 5.67534 10.6596 5.98584 10.6596H12.5371C12.8476 10.6596 13.0996 10.9116 13.0996 11.2221C13.0996 11.5326 12.8476 11.7846 12.5371 11.7846" fill="white"/>
</svg>
