<svg width="115" height="20" viewBox="0 0 115 20" fill="none" xmlns="http://www.w3.org/2000/svg">
<path d="M11.856 15.592H4.872L3.672 19H0.816L6.792 2.296H9.96L15.936 19H13.056L11.856 15.592ZM11.088 13.36L8.376 5.608L5.64 13.36H11.088ZM25.2064 5.56C26.2464 5.56 27.1744 5.776 27.9904 6.208C28.8224 6.64 29.4704 7.28 29.9344 8.128C30.3984 8.976 30.6304 10 30.6304 11.2V19H27.9184V11.608C27.9184 10.424 27.6224 9.52 27.0304 8.896C26.4384 8.256 25.6304 7.936 24.6064 7.936C23.5824 7.936 22.7664 8.256 22.1584 8.896C21.5664 9.52 21.2704 10.424 21.2704 11.608V19H18.5344V5.776H21.2704V7.288C21.7184 6.744 22.2864 6.32 22.9744 6.016C23.6784 5.712 24.4224 5.56 25.2064 5.56ZM35.5123 4.024C35.0163 4.024 34.6003 3.856 34.2643 3.52C33.9283 3.184 33.7603 2.768 33.7603 2.272C33.7603 1.776 33.9283 1.36 34.2643 1.024C34.6003 0.687999 35.0163 0.519999 35.5123 0.519999C35.9923 0.519999 36.4003 0.687999 36.7363 1.024C37.0723 1.36 37.2403 1.776 37.2403 2.272C37.2403 2.768 37.0723 3.184 36.7363 3.52C36.4003 3.856 35.9923 4.024 35.5123 4.024ZM36.8563 5.776V19H34.1203V5.776H36.8563ZM56.4564 5.56C57.4964 5.56 58.4244 5.776 59.2404 6.208C60.0724 6.64 60.7204 7.28 61.1844 8.128C61.6644 8.976 61.9044 10 61.9044 11.2V19H59.1924V11.608C59.1924 10.424 58.8964 9.52 58.3044 8.896C57.7124 8.256 56.9044 7.936 55.8804 7.936C54.8564 7.936 54.0404 8.256 53.4324 8.896C52.8404 9.52 52.5444 10.424 52.5444 11.608V19H49.8324V11.608C49.8324 10.424 49.5364 9.52 48.9444 8.896C48.3524 8.256 47.5444 7.936 46.5204 7.936C45.4964 7.936 44.6804 8.256 44.0724 8.896C43.4804 9.52 43.1844 10.424 43.1844 11.608V19H40.4484V5.776H43.1844V7.288C43.6324 6.744 44.2004 6.32 44.8884 6.016C45.5764 5.712 46.3124 5.56 47.0964 5.56C48.1524 5.56 49.0964 5.784 49.9284 6.232C50.7604 6.68 51.4004 7.328 51.8484 8.176C52.2484 7.376 52.8724 6.744 53.7204 6.28C54.5684 5.8 55.4804 5.56 56.4564 5.56ZM77.5059 12.064C77.5059 12.56 77.4739 13.008 77.4099 13.408H67.3059C67.3859 14.464 67.7779 15.312 68.4819 15.952C69.1859 16.592 70.0499 16.912 71.0739 16.912C72.5459 16.912 73.5859 16.296 74.1939 15.064H77.1459C76.7459 16.28 76.0179 17.28 74.9619 18.064C73.9219 18.832 72.6259 19.216 71.0739 19.216C69.8099 19.216 68.6739 18.936 67.6659 18.376C66.6739 17.8 65.8899 17 65.3139 15.976C64.7539 14.936 64.4739 13.736 64.4739 12.376C64.4739 11.016 64.7459 9.824 65.2899 8.8C65.8499 7.76 66.6259 6.96 67.6179 6.4C68.6259 5.84 69.7779 5.56 71.0739 5.56C72.3219 5.56 73.4339 5.832 74.4099 6.376C75.3859 6.92 76.1459 7.688 76.6899 8.68C77.2339 9.656 77.5059 10.784 77.5059 12.064ZM74.6499 11.2C74.6339 10.192 74.2739 9.384 73.5699 8.776C72.8659 8.168 71.9939 7.864 70.9539 7.864C70.0099 7.864 69.2019 8.168 68.5299 8.776C67.8579 9.368 67.4579 10.176 67.3299 11.2H74.6499ZM86.8704 5.56C87.9104 5.56 88.8384 5.776 89.6544 6.208C90.4864 6.64 91.1344 7.28 91.5984 8.128C92.0624 8.976 92.2944 10 92.2944 11.2V19H89.5824V11.608C89.5824 10.424 89.2864 9.52 88.6944 8.896C88.1024 8.256 87.2944 7.936 86.2704 7.936C85.2464 7.936 84.4304 8.256 83.8224 8.896C83.2304 9.52 82.9344 10.424 82.9344 11.608V19H80.1984V5.776H82.9344V7.288C83.3824 6.744 83.9504 6.32 84.6384 6.016C85.3424 5.712 86.0864 5.56 86.8704 5.56ZM97.1764 4.024C96.6804 4.024 96.2644 3.856 95.9284 3.52C95.5924 3.184 95.4244 2.768 95.4244 2.272C95.4244 1.776 95.5924 1.36 95.9284 1.024C96.2644 0.687999 96.6804 0.519999 97.1764 0.519999C97.6564 0.519999 98.0644 0.687999 98.4004 1.024C98.7364 1.36 98.9044 1.776 98.9044 2.272C98.9044 2.768 98.7364 3.184 98.4004 3.52C98.0644 3.856 97.6564 4.024 97.1764 4.024ZM98.5204 5.776V19H95.7844V5.776H98.5204ZM101.201 12.328C101.201 11 101.473 9.824 102.017 8.8C102.577 7.776 103.329 6.984 104.273 6.424C105.233 5.848 106.289 5.56 107.441 5.56C108.481 5.56 109.385 5.768 110.153 6.184C110.937 6.584 111.561 7.088 112.025 7.696V5.776H114.785V19H112.025V17.032C111.561 17.656 110.929 18.176 110.129 18.592C109.329 19.008 108.417 19.216 107.393 19.216C106.257 19.216 105.217 18.928 104.273 18.352C103.329 17.76 102.577 16.944 102.017 15.904C101.473 14.848 101.201 13.656 101.201 12.328ZM112.025 12.376C112.025 11.464 111.833 10.672 111.449 10C111.081 9.328 110.593 8.816 109.985 8.464C109.377 8.112 108.721 7.936 108.017 7.936C107.313 7.936 106.657 8.112 106.049 8.464C105.441 8.8 104.945 9.304 104.561 9.976C104.193 10.632 104.009 11.416 104.009 12.328C104.009 13.24 104.193 14.04 104.561 14.728C104.945 15.416 105.441 15.944 106.049 16.312C106.673 16.664 107.329 16.84 108.017 16.84C108.721 16.84 109.377 16.664 109.985 16.312C110.593 15.96 111.081 15.448 111.449 14.776C111.833 14.088 112.025 13.288 112.025 12.376Z" fill="#DA1414"/>
</svg>
