<svg width="16" height="16" viewBox="0 0 16 16" fill="none" xmlns="http://www.w3.org/2000/svg">
<path fill-rule="evenodd" clip-rule="evenodd" d="M7.85116 8.97656C7.40516 8.97656 6.96049 8.82922 6.58849 8.53456L3.59849 6.12389C3.38316 5.95056 3.34982 5.63522 3.52249 5.42056C3.69649 5.20656 4.01116 5.17256 4.22582 5.34522L7.21316 7.75322C7.58849 8.05056 8.11716 8.05056 8.49516 7.75056L11.4525 5.34656C11.6672 5.17122 11.9818 5.20456 12.1565 5.41922C12.3305 5.63322 12.2978 5.94789 12.0838 6.12256L9.12116 8.53056C8.74649 8.82789 8.29849 8.97656 7.85116 8.97656" fill="#DA1414"/>
<g mask="url(#mask0_48_2127)">
<path fill-rule="evenodd" clip-rule="evenodd" d="M4.55918 13.3334H11.1059C11.1072 13.332 11.1125 13.3334 11.1165 13.3334C11.8772 13.3334 12.5519 13.0614 13.0692 12.5447C13.6699 11.9467 13.9999 11.0874 13.9999 10.1254V5.54669C13.9999 3.68469 12.7825 2.33335 11.1059 2.33335H4.56052C2.88385 2.33335 1.66652 3.68469 1.66652 5.54669V10.1254C1.66652 11.0874 1.99718 11.9467 2.59718 12.5447C3.11452 13.0614 3.78985 13.3334 4.54985 13.3334H4.55918ZM4.54784 14.3334C3.51917 14.3334 2.6005 13.96 1.89117 13.2534C1.10117 12.4654 0.666504 11.3547 0.666504 10.1254V5.54671C0.666504 3.14471 2.3405 1.33337 4.5605 1.33337H11.1058C13.3258 1.33337 14.9998 3.14471 14.9998 5.54671V10.1254C14.9998 11.3547 14.5652 12.4654 13.7752 13.2534C13.0665 13.9594 12.1472 14.3334 11.1165 14.3334H11.1058H4.5605H4.54784Z" fill="#DA1414"/>
</g>
</svg>
