<svg width="22" height="22" viewBox="0 0 22 22" fill="none" xmlns="http://www.w3.org/2000/svg">
<g mask="url(#mask0_860_6738)">
<path fill-rule="evenodd" clip-rule="evenodd" d="M11.2264 2.29169C8.02268 2.29169 5.78968 4.80152 5.78968 7.05377C5.78968 8.95952 5.26076 9.84044 4.79326 10.6178C4.41835 11.242 4.12226 11.7352 4.12226 12.8068C4.27535 14.5356 5.4166 15.444 11.2264 15.444C17.0042 15.444 18.1812 14.4953 18.3333 12.7472C18.3306 11.7352 18.0345 11.242 17.6596 10.6178C17.1921 9.84044 16.6632 8.95952 16.6632 7.05377C16.6632 4.80152 14.4302 2.29169 11.2264 2.29169ZM11.2264 16.819C6.94009 16.819 3.06626 16.5165 2.75001 12.8654C2.74726 11.3548 3.20835 10.5866 3.61535 9.9101C4.02693 9.22444 4.41468 8.57819 4.41468 7.05377C4.41468 4.09019 7.15184 0.916687 11.2264 0.916687C15.301 0.916687 18.0382 4.09019 18.0382 7.05377C18.0382 8.57819 18.4259 9.22444 18.8375 9.9101C19.2445 10.5866 19.7056 11.3548 19.7056 12.8068C19.3857 16.5165 15.5128 16.819 11.2264 16.819Z" fill="#404156"/>
</g>
<path fill-rule="evenodd" clip-rule="evenodd" d="M11.1817 20.625H11.1799C10.1523 20.6241 9.17969 20.1712 8.44177 19.349C8.18785 19.0676 8.21077 18.6322 8.4931 18.3792C8.77544 18.1243 9.20994 18.1472 9.46385 18.4305C9.93869 18.9594 10.5483 19.25 11.1808 19.25H11.1817C11.8169 19.25 12.4293 18.9594 12.905 18.4296C13.1599 18.1482 13.5944 18.1252 13.8758 18.3792C14.1581 18.6331 14.181 19.0685 13.9271 19.3499C13.1864 20.1722 12.212 20.625 11.1817 20.625Z" fill="#404156"/>
</svg>
