<svg width="18" height="18" viewBox="0 0 18 18" fill="none" xmlns="http://www.w3.org/2000/svg">
<mask id="mask0_2_1579" style="mask-type:luminance" maskUnits="userSpaceOnUse" x="1" y="1" width="16" height="16">
<path fill-rule="evenodd" clip-rule="evenodd" d="M1.50024 1.50012H16.4699V16.4625H1.50024V1.50012Z" fill="white"/>
</mask>
<g mask="url(#mask0_2_1579)">
<path fill-rule="evenodd" clip-rule="evenodd" d="M5.73774 2.625C3.84699 2.625 2.62524 3.92025 2.62524 5.92425V12.0382C2.62524 14.043 3.84699 15.3375 5.73774 15.3375H12.2252C14.1205 15.3375 15.3452 14.043 15.3452 12.0382V5.92425C15.3452 3.92025 14.1205 2.625 12.2252 2.625H5.73774ZM12.2252 16.4625H5.73774C3.20274 16.4625 1.50024 14.6843 1.50024 12.0383V5.92425C1.50024 3.27825 3.20274 1.5 5.73774 1.5H12.2252C14.764 1.5 16.4702 3.27825 16.4702 5.92425V12.0383C16.4702 14.6843 14.764 16.4625 12.2252 16.4625V16.4625Z" fill="white"/>
</g>
<path fill-rule="evenodd" clip-rule="evenodd" d="M3.96094 12.8853C3.82144 12.8853 3.68269 12.8343 3.57394 12.7308C3.34819 12.5178 3.33919 12.1608 3.55294 11.9365L4.69894 10.7268C5.30569 10.0825 6.32944 10.051 6.97669 10.6585L7.69519 11.3875C7.89544 11.59 8.22094 11.5938 8.42194 11.3958C8.49769 11.3065 10.1312 9.32278 10.1312 9.32278C10.4417 8.94628 10.8797 8.71378 11.3664 8.66578C11.8539 8.62303 12.3272 8.76478 12.7044 9.07453C12.7367 9.10078 12.7659 9.12628 14.4129 10.8175C14.6297 11.0395 14.6259 11.3958 14.4032 11.6125C14.1812 11.8308 13.8242 11.824 13.6074 11.602C13.6074 11.602 12.0707 10.0248 11.9612 9.91828C11.8449 9.82303 11.6582 9.76753 11.4744 9.78553C11.2877 9.80428 11.1197 9.89353 11.0004 10.0383C9.25744 12.1525 9.23644 12.1728 9.20794 12.2005C8.56444 12.832 7.52569 12.8215 6.89344 12.1765C6.89344 12.1765 6.19594 11.4685 6.18394 11.4543C6.01069 11.2938 5.70169 11.3043 5.51644 11.5L4.36894 12.7098C4.25794 12.8268 4.10944 12.8853 3.96094 12.8853V12.8853Z" fill="white"/>
<path fill-rule="evenodd" clip-rule="evenodd" d="M6.41814 6.09662C6.00339 6.09662 5.66589 6.43412 5.66589 6.84962C5.66589 7.26512 6.00339 7.60337 6.41889 7.60337C6.83439 7.60337 7.17264 7.26512 7.17264 6.84962C7.17264 6.43487 6.83439 6.09737 6.41814 6.09662M6.41889 8.72837C5.38314 8.72837 4.54089 7.88537 4.54089 6.84962C4.54089 5.81387 5.38314 4.97162 6.41889 4.97162C7.45539 4.97237 8.29764 5.81537 8.29764 6.84962C8.29764 7.88537 7.45464 8.72837 6.41889 8.72837" fill="white"/>
</svg>
