<svg width="24" height="24" viewBox="0 0 24 24" fill="none" xmlns="http://www.w3.org/2000/svg">
<path d="M16.8398 5.79639C17.2195 5.79639 17.5333 6.07854 17.583 6.44462L17.5898 6.54639V20.1642C17.5898 20.5784 17.2541 20.9142 16.8398 20.9142C16.4601 20.9142 16.1464 20.632 16.0967 20.2659L16.0898 20.1642V6.54639C16.0898 6.13217 16.4256 5.79639 16.8398 5.79639Z" fill="black"/>
<path d="M20.3857 15.5389C20.6779 15.2453 21.1528 15.2442 21.4464 15.5364C21.7133 15.8021 21.7384 16.2187 21.5213 16.5128L21.4488 16.5971L17.3711 20.6938C17.1045 20.9615 16.6863 20.9859 16.3922 20.7668L16.3079 20.6938L12.2302 16.5971C11.9379 16.3035 11.939 15.8287 12.2326 15.5364C12.4995 15.2708 12.9162 15.2475 13.2093 15.4661L13.2933 15.5389L16.8391 19.1009L20.3857 15.5389Z" fill="black"/>
<path d="M6.91211 3.08289C7.29181 3.08289 7.6056 3.36504 7.65526 3.73112L7.66211 3.83289V17.4507C7.66211 17.8649 7.32632 18.2007 6.91211 18.2007C6.53241 18.2007 6.21862 17.9185 6.16896 17.5524L6.16211 17.4507V3.83289C6.16211 3.41867 6.4979 3.08289 6.91211 3.08289Z" fill="black"/>
<path d="M6.38021 3.30317C6.64673 3.03542 7.06498 3.01108 7.35908 3.23015L7.44332 3.30317L11.5211 7.39984C11.8133 7.69341 11.8122 8.16828 11.5186 8.4605C11.2518 8.72615 10.835 8.74939 10.5419 8.53086L10.458 8.45805L6.91154 4.89494L3.36554 8.45805C3.09989 8.72493 2.68328 8.7501 2.38917 8.53292L2.30488 8.4605C2.038 8.19485 2.01283 7.77824 2.23001 7.48412L2.30243 7.39984L6.38021 3.30317Z" fill="black"/>
</svg>
