<svg width="60" height="60" viewBox="0 0 60 60" fill="none" xmlns="http://www.w3.org/2000/svg">
<path fill-rule="evenodd" clip-rule="evenodd" d="M6.6 12.3407C6.6 11.3575 7.40589 10.5604 8.4 10.5604H51.6C52.5941 10.5604 53.4 11.3575 53.4 12.3407V35.4835H6.6V12.3407ZM30 42.6044C30.4774 42.6044 30.9352 42.4168 31.2728 42.083C31.6104 41.7491 31.8 41.2963 31.8 40.8242C31.8 40.4721 31.6944 40.1279 31.4966 39.8351C31.2989 39.5424 31.0177 39.3142 30.6888 39.1795C30.3599 39.0447 29.998 39.0095 29.6488 39.0782C29.2997 39.1469 28.9789 39.3164 28.7272 39.5654C28.4755 39.8143 28.304 40.1315 28.2346 40.4769C28.1651 40.8222 28.2008 41.1801 28.337 41.5054C28.4733 41.8307 28.704 42.1088 29 42.3044C29.296 42.5 29.644 42.6044 30 42.6044ZM8.4 7C5.41766 7 3 9.39109 3 12.3407V40.8242C3 43.7737 5.41766 46.1648 8.4 46.1648H25.275L24.825 49.7253H17.4C16.4059 49.7253 15.6 50.5223 15.6 51.5055C15.6 52.4887 16.4059 53.2857 17.4 53.2857H42.6C43.5941 53.2857 44.4 52.4887 44.4 51.5055C44.4 50.5223 43.5941 49.7253 42.6 49.7253H35.175L34.725 46.1648H51.6C54.5823 46.1648 57 43.7737 57 40.8242V12.3407C57 9.39109 54.5823 7 51.6 7H8.4Z" fill="#9F9F9F"/>
</svg>
