<svg width="14" height="15" viewBox="0 0 14 15" fill="none" xmlns="http://www.w3.org/2000/svg">
<path fill-rule="evenodd" clip-rule="evenodd" d="M12.1049 13.2982H7.87402C7.63252 13.2982 7.43652 13.1022 7.43652 12.8607C7.43652 12.6192 7.63252 12.4232 7.87402 12.4232H12.1049C12.3464 12.4232 12.5424 12.6192 12.5424 12.8607C12.5424 13.1022 12.3464 13.2982 12.1049 13.2982" fill="#DA1414"/>
<g mask="url(#mask0_42_5222)">
<path fill-rule="evenodd" clip-rule="evenodd" d="M7.64799 3.4265L2.1559 10.2952C2.05615 10.4201 2.0194 10.5811 2.05615 10.7357L2.4534 12.4186L4.22615 12.3964C4.39474 12.3947 4.55049 12.3194 4.65374 12.1911C6.53032 9.84316 10.1079 5.36666 10.2094 5.23541C10.3051 5.08025 10.3424 4.86091 10.2922 4.64975C10.2409 4.43333 10.1062 4.24958 9.9119 4.13233C9.87049 4.10375 8.88757 3.34075 8.85724 3.31683C8.4874 3.0205 7.94782 3.07183 7.64799 3.4265V3.4265ZM2.10807 13.2982C1.90565 13.2982 1.72949 13.1594 1.68224 12.9617L1.20449 10.9369C1.1059 10.5175 1.2039 10.0847 1.47282 9.74866L6.96782 2.87583C6.97015 2.8735 6.9719 2.87058 6.97424 2.86825C7.57682 2.14783 8.66649 2.04166 9.40149 2.63141C9.43065 2.65416 10.4066 3.4125 10.4066 3.4125C10.7612 3.62366 11.0383 4.00108 11.1433 4.44791C11.2477 4.89008 11.1719 5.34625 10.9287 5.73183C10.9106 5.76041 10.8948 5.78491 5.33682 12.7382C5.06907 13.0719 4.66774 13.2662 4.23665 13.2714L2.1139 13.2982H2.10807Z" fill="#DA1414"/>
</g>
<path fill-rule="evenodd" clip-rule="evenodd" d="M9.46399 7.31619C9.37065 7.31619 9.27732 7.28644 9.1974 7.22578L6.01707 4.78278C5.82574 4.63578 5.78957 4.36161 5.93657 4.16911C6.08415 3.97778 6.35832 3.94219 6.55024 4.08919L9.73115 6.53161C9.92249 6.67861 9.95865 6.95336 9.81107 7.14528C9.72532 7.25728 9.59524 7.31619 9.46399 7.31619" fill="#DA1414"/>
</svg>
