<svg width="16" height="16" viewBox="0 0 16 16" fill="none" xmlns="http://www.w3.org/2000/svg">
    <path fill-rule="evenodd" clip-rule="evenodd"
        d="M6.7202 12.3955H2.51953C2.24353 12.3955 2.01953 12.1715 2.01953 11.8955C2.01953 11.6195 2.24353 11.3955 2.51953 11.3955H6.7202C6.9962 11.3955 7.2202 11.6195 7.2202 11.8955C7.2202 12.1715 6.9962 12.3955 6.7202 12.3955"
        fill="#DEDEDE" />
    <path fill-rule="evenodd" clip-rule="evenodd"
        d="M12.7937 5.93359H8.59375C8.31775 5.93359 8.09375 5.70959 8.09375 5.43359C8.09375 5.15759 8.31775 4.93359 8.59375 4.93359H12.7937C13.0697 4.93359 13.2937 5.15759 13.2937 5.43359C13.2937 5.70959 13.0697 5.93359 12.7937 5.93359"
        fill="#DEDEDE" />
    <g mask="url(#mask0_66_11079)">
        <path fill-rule="evenodd" clip-rule="evenodd"
            d="M4.07533 4.33398C3.48267 4.33398 3 4.81132 3 5.39865C3 5.98532 3.48267 6.46198 4.07533 6.46198C4.66867 6.46198 5.15067 5.98532 5.15067 5.39865C5.15067 4.81132 4.66867 4.33398 4.07533 4.33398M4.07533 7.46198C2.93133 7.46198 2 6.53665 2 5.39865C2 4.26065 2.93133 3.33398 4.07533 3.33398C5.22 3.33398 6.15067 4.26065 6.15067 5.39865C6.15067 6.53665 5.22 7.46198 4.07533 7.46198"
            fill="#DEDEDE" />
    </g>
    <path fill-rule="evenodd" clip-rule="evenodd"
        d="M11.5916 10.8057C10.9983 10.8057 10.5156 11.283 10.5156 11.8697C10.5156 12.457 10.9983 12.9337 11.5916 12.9337C12.1843 12.9337 12.6663 12.457 12.6663 11.8697C12.6663 11.283 12.1843 10.8057 11.5916 10.8057M11.5916 13.9337C10.447 13.9337 9.51562 13.0077 9.51562 11.8697C9.51562 10.7317 10.447 9.80566 11.5916 9.80566C12.7356 9.80566 13.6663 10.7317 13.6663 11.8697C13.6663 13.0077 12.7356 13.9337 11.5916 13.9337"
        fill="#DEDEDE" />
</svg>