<svg width="16" height="16" viewBox="0 0 16 16" fill="none" xmlns="http://www.w3.org/2000/svg">
<path fill-rule="evenodd" clip-rule="evenodd" d="M11.2818 6.80001C11.0058 6.80001 10.7818 6.57601 10.7818 6.30001V4.86867C10.7818 3.47134 9.64517 2.33467 8.24784 2.33467H8.23717C7.56184 2.33467 6.92917 2.59467 6.45117 3.06867C5.96984 3.54467 5.70384 4.18001 5.70117 4.85734V6.30001C5.70117 6.57601 5.47717 6.80001 5.20117 6.80001C4.92517 6.80001 4.70117 6.57601 4.70117 6.30001V4.86867C4.70517 3.90867 5.07651 3.02267 5.74651 2.35867C6.41717 1.69401 7.30251 1.30934 8.24984 1.33467C10.1965 1.33467 11.7818 2.92001 11.7818 4.86867V6.30001C11.7818 6.57601 11.5578 6.80001 11.2818 6.80001" fill="#DA1414"/>
<path fill-rule="evenodd" clip-rule="evenodd" d="M5.69425 6.75254C4.57558 6.75254 3.66625 7.66187 3.66625 8.78054V11.6399C3.66625 12.7585 4.57558 13.6679 5.69425 13.6679H10.7882C11.9062 13.6679 12.8162 12.7585 12.8162 11.6399V8.78054C12.8162 7.66187 11.9062 6.75254 10.7882 6.75254H5.69425ZM10.7885 14.6679H5.6945C4.0245 14.6679 2.6665 13.3099 2.6665 11.6399V8.78056C2.6665 7.11056 4.0245 5.75256 5.6945 5.75256H10.7885C12.4585 5.75256 13.8165 7.11056 13.8165 8.78056V11.6399C13.8165 13.3099 12.4585 14.6679 10.7885 14.6679V14.6679Z" fill="#DA1414"/>
<path fill-rule="evenodd" clip-rule="evenodd" d="M8.24121 11.4504C7.96521 11.4504 7.74121 11.2264 7.74121 10.9504V9.46973C7.74121 9.19373 7.96521 8.96973 8.24121 8.96973C8.51721 8.96973 8.74121 9.19373 8.74121 9.46973V10.9504C8.74121 11.2264 8.51721 11.4504 8.24121 11.4504" fill="#DA1414"/>
</svg>
