<svg width="22" height="22" viewBox="0 0 22 22" fill="none" xmlns="http://www.w3.org/2000/svg">
<path fill-rule="evenodd" clip-rule="evenodd" d="M8.22397 2.18395C8.40644 2.36643 8.45868 2.64197 8.35567 2.87858C7.93846 3.83682 7.76386 4.99167 7.76386 6.16996C7.76386 10.6246 11.3754 14.2361 15.83 14.2361C17.0083 14.2361 18.1632 14.0615 19.1214 13.6443C19.358 13.5413 19.6336 13.5936 19.8161 13.776C19.9985 13.9585 20.0508 14.234 19.9478 14.4707C18.5063 17.7822 15.1346 20 11.322 20C6.17374 20 2 15.8263 2 10.678C2 6.86544 4.21778 3.49372 7.52935 2.0522C7.76596 1.9492 8.0415 2.00146 8.22397 2.18395ZM6.7212 3.93425C4.61182 5.39803 3.25581 7.89255 3.25581 10.678C3.25581 15.1327 6.86731 18.7442 11.322 18.7442C14.1075 18.7442 16.602 17.3882 18.0658 15.2788C17.3318 15.4293 16.5721 15.492 15.83 15.492C10.6818 15.492 6.50805 11.3182 6.50805 6.16996C6.50805 5.42792 6.57073 4.66817 6.7212 3.93425Z" fill="#404156"/>
</svg>
