<svg width="16" height="16" viewBox="0 0 16 16" fill="none" xmlns="http://www.w3.org/2000/svg">

<g mask="url(#mask0_48_13176)">
<path fill-rule="evenodd" clip-rule="evenodd" d="M8.32181 2.33329C7.75648 2.33329 4.18981 3.58929 3.77848 3.93262C3.65715 4.05462 3.65248 4.26662 3.67848 5.68596C3.69048 6.36996 3.70715 7.29929 3.70715 8.58596C3.70715 12.0533 7.52181 13.5926 8.32115 13.876C9.11981 13.5913 12.9365 12.0433 12.9365 8.58596C12.9365 7.29796 12.9531 6.36796 12.9658 5.68396C12.9911 4.26596 12.9865 4.05396 12.8578 3.92596C12.4545 3.58929 8.88715 2.33329 8.32181 2.33329M8.32211 14.904C8.27345 14.904 8.22478 14.8973 8.17745 14.8826C7.95411 14.8153 2.70745 13.174 2.70745 8.58598C2.70745 7.30798 2.69078 6.38331 2.67878 5.70465C2.64811 4.00931 2.64145 3.65598 3.07945 3.21865C3.60278 2.69398 7.56611 1.33331 8.32211 1.33331C9.07745 1.33331 13.0408 2.69398 13.5654 3.21865C14.0028 3.65598 13.9961 4.00931 13.9654 5.70265C13.9534 6.38131 13.9368 7.30598 13.9368 8.58598C13.9368 13.174 8.69011 14.8153 8.46678 14.8826C8.41945 14.8973 8.37078 14.904 8.32211 14.904" fill="#DA1414"/>
</g>
<path fill-rule="evenodd" clip-rule="evenodd" d="M7.85109 9.67967V9.67967C7.71843 9.67967 7.59109 9.627 7.49709 9.533L6.23576 8.27033C6.04109 8.075 6.04109 7.75767 6.23643 7.563C6.43109 7.36767 6.74843 7.36767 6.94376 7.563L7.85109 8.47167L10.0964 6.22633C10.2918 6.031 10.6078 6.031 10.8031 6.22633C10.9984 6.42167 10.9984 6.73833 10.8031 6.93367L8.20443 9.533C8.11109 9.627 7.98376 9.67967 7.85109 9.67967" fill="#DA1414"/>
</svg>