<svg width="16" height="16" viewBox="0 0 16 16" fill="none" xmlns="http://www.w3.org/2000/svg">
<g clip-path="url(#clip0_809_10202)">
<path fill-rule="evenodd" clip-rule="evenodd" d="M16 8C16 12.4183 12.4183 16 8 16C3.58172 16 0 12.4183 0 8C0 3.58172 3.58172 0 8 0C12.4183 0 16 3.58172 16 8ZM8.28669 5.90597C7.50857 6.22962 5.95343 6.89948 3.62127 7.91557C3.24256 8.06617 3.04418 8.2135 3.02612 8.35756C2.99559 8.60102 3.30048 8.69689 3.71565 8.82744C3.77213 8.84519 3.83064 8.86359 3.89063 8.88309C4.2991 9.01587 4.84855 9.1712 5.1342 9.17737C5.3933 9.18297 5.68249 9.07615 6.00176 8.85691C8.18078 7.38602 9.30559 6.64256 9.37621 6.62653C9.42603 6.61522 9.49507 6.60101 9.54185 6.64258C9.58862 6.68416 9.58403 6.7629 9.57907 6.78402C9.54887 6.91278 8.35207 8.02543 7.73274 8.60122C7.53967 8.78071 7.40272 8.90803 7.37472 8.93711C7.31201 9.00225 7.24809 9.06387 7.18666 9.12309C6.80718 9.48891 6.52261 9.76323 7.20241 10.2112C7.52909 10.4265 7.7905 10.6045 8.05129 10.7821C8.33611 10.9761 8.62019 11.1695 8.98775 11.4105C9.08139 11.4718 9.17082 11.5356 9.25793 11.5977C9.58939 11.834 9.88717 12.0463 10.2551 12.0124C10.4688 11.9928 10.6896 11.7918 10.8018 11.1923C11.0668 9.77545 11.5878 6.70566 11.7081 5.44067C11.7187 5.32984 11.7054 5.188 11.6948 5.12574C11.6841 5.06347 11.6618 4.97476 11.5809 4.90909C11.4851 4.83131 11.3371 4.81491 11.2709 4.81608C10.97 4.82138 10.5084 4.9819 8.28669 5.90597Z" fill="#ABABAB"/>
</g>
<defs>
<clipPath id="clip0_809_10202">
<rect width="16" height="16" fill="white"/>
</clipPath>
</defs>
</svg>
