<svg width="25" height="24" viewBox="0 0 25 24" fill="none" xmlns="http://www.w3.org/2000/svg">
<path fill-rule="evenodd" clip-rule="evenodd" d="M12.7464 21.9999C11.3914 21.9999 10.0704 21.9849 8.76335 21.9579C7.09135 21.9249 5.93435 20.8409 5.74535 19.1289C5.43035 16.2889 4.89135 9.59491 4.88635 9.52791C4.85235 9.11491 5.16035 8.75291 5.57335 8.71991C5.98035 8.70891 6.34835 8.99491 6.38135 9.40691C6.38635 9.47491 6.92435 16.1459 7.23635 18.9639C7.34335 19.9369 7.86835 20.4389 8.79435 20.4579C11.2944 20.5109 13.8454 20.5139 16.5954 20.4639C17.5794 20.4449 18.1114 19.9529 18.2214 18.9569C18.5314 16.1629 19.0714 9.47491 19.0774 9.40691C19.1104 8.99491 19.4754 8.70691 19.8844 8.71991C20.2974 8.75391 20.6054 9.11491 20.5724 9.52791C20.5664 9.59591 20.0244 16.3069 19.7124 19.1219C19.5184 20.8689 18.3644 21.9319 16.6224 21.9639C15.2894 21.9869 14.0034 21.9999 12.7464 21.9999Z" fill="#DA1414"/>
<path fill-rule="evenodd" clip-rule="evenodd" d="M21.208 6.98926H4.25C3.836 6.98926 3.5 6.65326 3.5 6.23926C3.5 5.82526 3.836 5.48926 4.25 5.48926H21.208C21.622 5.48926 21.958 5.82526 21.958 6.23926C21.958 6.65326 21.622 6.98926 21.208 6.98926Z" fill="#DA1414"/>
<path fill-rule="evenodd" clip-rule="evenodd" d="M17.9406 6.98924C16.8026 6.98924 15.8146 6.17824 15.5906 5.06224L15.3476 3.84624C15.2966 3.66124 15.0856 3.50024 14.8456 3.50024H10.6126C10.3726 3.50024 10.1616 3.66124 10.1006 3.89224L9.86758 5.06224C9.64458 6.17824 8.65558 6.98924 7.51758 6.98924C7.10358 6.98924 6.76758 6.65324 6.76758 6.23924C6.76758 5.82524 7.10358 5.48924 7.51758 5.48924C7.94358 5.48924 8.31358 5.18524 8.39758 4.76724L8.64058 3.55124C8.88758 2.61924 9.69458 2.00024 10.6126 2.00024H14.8456C15.7636 2.00024 16.5706 2.61924 16.8076 3.50624L17.0616 4.76724C17.1446 5.18524 17.5146 5.48924 17.9406 5.48924C18.3546 5.48924 18.6906 5.82524 18.6906 6.23924C18.6906 6.65324 18.3546 6.98924 17.9406 6.98924Z" fill="#DA1414"/>
</svg>
